<svg xmlns="http://www.w3.org/2000/svg" width="512" height="512" viewBox="0 0 108 108">
  <!-- rounded-square adaptive icon: black background, transparent corners -->
  <rect x="0" y="0" width="108" height="108" rx="22" ry="22" fill="#000000"/>
  <!-- white rounded tile -->
  <path fill="#FFFFFF" d="M38,28 L70,28 A10,10 0 0 1 80,38 L80,70 A10,10 0 0 1 70,80 L38,80 A10,10 0 0 1 28,70 L28,38 A10,10 0 0 1 38,28 Z"/>
  <!-- black brilliant-cut gem -->
  <path fill="#000000" d="M37.2,41.2 L70.8,41.2 L54,74 Z"/>
  <!-- white facet lines -->
  <path stroke="#FFFFFF" stroke-width="2" fill="none" d="M42.8,52.4 L65.2,52.4"/>
  <path stroke="#FFFFFF" stroke-width="2" fill="none" d="M48.4,41.2 L54,74"/>
  <path stroke="#FFFFFF" stroke-width="2" fill="none" d="M59.6,41.2 L54,74"/>
</svg>
